<svg width="22" height="22" viewBox="0 0 22 22" fill="none" xmlns="http://www.w3.org/2000/svg">
<g id="Buy 3">
<g id="Group">
<path id="Vector" d="M2.52081 2.97919L4.42748 3.30919L5.31023 13.8261C5.34414 14.24 5.53284 14.6258 5.83867 14.9067C6.14451 15.1875 6.545 15.3427 6.96023 15.3414H16.9611C17.3586 15.3418 17.743 15.1987 18.0435 14.9383C18.344 14.6779 18.5403 14.3178 18.5964 13.9242L19.4672 7.91269C19.4904 7.75281 19.4819 7.58993 19.4421 7.43335C19.4023 7.27677 19.3321 7.12957 19.2354 7.00017C19.1387 6.87076 19.0174 6.76169 18.8785 6.67919C18.7396 6.59669 18.5858 6.54237 18.4259 6.51935C18.3672 6.51294 4.73365 6.50835 4.73365 6.50835" stroke="#272343" stroke-width="1.5" stroke-linecap="round" stroke-linejoin="round"/>
<path id="Vector_2" d="M12.9479 9.89545H15.4898" stroke="#272343" stroke-width="1.5" stroke-linecap="round" stroke-linejoin="round"/>
<path id="Vector_3" fill-rule="evenodd" clip-rule="evenodd" d="M6.5578 18.5194C6.62502 18.5166 6.69213 18.5273 6.75509 18.551C6.81805 18.5748 6.87556 18.611 6.92414 18.6576C6.97273 18.7041 7.01139 18.76 7.03781 18.8219C7.06422 18.8838 7.07784 18.9504 7.07784 19.0177C7.07784 19.0849 7.06422 19.1515 7.03781 19.2134C7.01139 19.2753 6.97273 19.3312 6.92414 19.3777C6.87556 19.4243 6.81805 19.4605 6.75509 19.4843C6.69213 19.508 6.62502 19.5187 6.5578 19.5159C6.42936 19.5104 6.30801 19.4555 6.21908 19.3626C6.13015 19.2698 6.08051 19.1462 6.08051 19.0177C6.08051 18.8891 6.13015 18.7655 6.21908 18.6727C6.30801 18.5799 6.42936 18.525 6.5578 18.5194Z" fill="#272343" stroke="#272343" stroke-width="1.5" stroke-linecap="round" stroke-linejoin="round"/>
<path id="Vector_4" fill-rule="evenodd" clip-rule="evenodd" d="M16.8988 18.5194C17.0312 18.5194 17.1583 18.572 17.252 18.6657C17.3457 18.7594 17.3983 18.8865 17.3983 19.019C17.3983 19.1515 17.3457 19.2786 17.252 19.3723C17.1583 19.4659 17.0312 19.5186 16.8988 19.5186C16.7663 19.5186 16.6392 19.4659 16.5455 19.3723C16.4518 19.2786 16.3992 19.1515 16.3992 19.019C16.3992 18.8865 16.4518 18.7594 16.5455 18.6657C16.6392 18.572 16.7663 18.5194 16.8988 18.5194Z" fill="#272343" stroke="#272343" stroke-width="1.5" stroke-linecap="round" stroke-linejoin="round"/>
</g>
</g>
</svg>
